<?xml version="1.0" encoding="UTF-8"?>
<!DOCTYPE svg PUBLIC "-//W3C//DTD SVG 1.1//EN" "http://www.w3.org/Graphics/SVG/1.1/DTD/svg11.dtd">
<!-- Creator: CorelDRAW -->
<svg xmlns="http://www.w3.org/2000/svg" xml:space="preserve" width="297mm" height="210mm" style="shape-rendering:geometricPrecision; text-rendering:geometricPrecision; image-rendering:optimizeQuality; fill-rule:evenodd; clip-rule:evenodd"
viewBox="0 0 297 210"
 xmlns:xlink="http://www.w3.org/1999/xlink">
 <defs>
  <style type="text/css">
   <![CDATA[
    .fil1 {fill:#2D00AA}
    .fil3 {fill:#2F3336}
    .fil2 {fill:#33ACED}
    .fil0 {fill:#3BC6FF}
    .fil4 {fill:#5075FF}
   ]]>
  </style>
 </defs>
 <g id="__x0023_Layer_x0020_1">
  <metadata id="CorelCorpID_0Corel-Layer"/>
  <polygon class="fil0" points="63.9493,83.5681 85.0278,83.5681 105.665,104.647 84.9398,125.901 63.6848,125.901 84.9068,104.669 "/>
  <path class="fil1" d="M100.86 109.575l-15.9197 16.3262 -21.255 0 21.222 -21.2327 12.8999 0c0,0 1.4442,2.1051 3.0528,4.9065z"/>
  <polygon class="fil2" points="95.407,94.169 105.665,104.647 95.4064,115.167 84.9068,104.669 82.376,107.201 "/>
  <path class="fil3" d="M130.328 100.589c0,0 1.2567,-0.2866 2.5798,-0.022 1.323,0.2645 1.3671,1.3008 1.3671,1.3008l0 9.6129c0.5835,2.7638 4.5113,2.4825 6.4162,1.3449l0 -12.3253c0,0 2.1388,-0.2424 3.1751,0.1544 1.0363,0.3968 0.9481,1.3449 0.9481,1.3449l0 11.9725c-1.5754,3.8276 -14.5958,5.1264 -14.5958,-3.0427l0.1095 -10.3404z"/>
  <path class="fil3" d="M162.299 116.546c0,0 -1.2567,0.2866 -2.5796,0.0221 -1.323,-0.2646 -1.3671,-1.3008 -1.3671,-1.3008l0 -9.6131c-0.5836,-2.7637 -4.5113,-2.4824 -6.4162,-1.3447l0 12.3253c0,0 -2.1388,0.2424 -3.1751,-0.1544 -1.0362,-0.3968 -0.948,-1.3449 -0.948,-1.3449l0 -11.9725c1.5753,-3.8276 14.5957,-5.1264 14.5957,3.0426l-0.1097 10.3404z"/>
  <path class="fil3" d="M182.033 94.6127c0,0 1.3232,-0.2758 2.5688,-0.0773 1.2458,0.1984 1.5215,1.0914 1.5215,1.0914l0 5.451c1.0437,-0.586 2.5607,-1.0299 4.7296,-0.9093 5.5563,0.3087 5.7546,4.7184 5.7546,4.7184l0 11.4431c0,0 -1.1466,0.3087 -2.5357,0.0662 -1.3891,-0.2425 -1.4775,-1.1907 -1.4775,-1.1907l0 -9.5028c0,0 -0.3085,-2.4913 -3.5277,-2.3811 -1.4709,0.0504 -2.3845,0.4873 -2.9433,0.9472l0 12.0396c0,0 -1.1356,0.485 -2.7231,0.1543 -1.5875,-0.3307 -1.367,-1.9843 -1.367,-1.9843l-0.0002 -19.8657z"/>
  <path class="fil4" d="M199.627 97.7758c0,0 0.1765,-1.5213 1.7859,-1.6095l11.4213 0c0,0 0.5732,0.3088 0.4629,1.6536 -0.1101,1.345 -1.0142,1.764 -1.0142,1.764l-8.4005 0 0 4.8067 7.9372 0c0,0 0.7056,0.5291 0.6395,1.6756 -0.0662,1.1466 -1.2347,1.8301 -1.2347,1.8301l-7.342 0 0 5.071 9.1719 0c0,0 0.4631,0.904 0.4631,1.7859 0,0.8821 -0.6615,1.6316 -0.6615,1.6316l-11.5095 0c0,0 -1.7198,-0.022 -1.6536,-2.0945l-0.0658 -16.5145z"/>
  <path class="fil3" d="M177.843 112.482c0,0 0.7937,0.4851 1.1024,1.4332 0.3087,0.9481 -0.3528,1.9844 -3.0428,2.6678 -2.6898,0.6836 -8.6432,0.5071 -10.1424,-5.6667 -1.4993,-6.1735 2.1608,-9.9218 6.0192,-10.6053 3.8586,-0.6836 5.7438,0.3305 6.5486,1.3118 0.5092,0.6207 0.7476,1.6506 0.1339,2.2726l-0.5969 0.6049c0,0 -3.2411,-2.0397 -5.8649,-0.4301 -2.6238,1.6095 -2.8664,5.5341 -1.2789,7.761 1.5875,2.2269 5.2035,1.8521 7.1218,0.6508z"/>
  <path class="fil4" d="M116.04 106.1l0 -6.7246c0,0 2.3594,-0.3969 4.4319,0.0221 2.0725,0.4189 2.712,2.8442 2.1387,4.6301 -0.5733,1.7858 -2.3467,1.9122 -2.7561,2.0064 -0.4094,0.0942 -3.8145,0.066 -3.8145,0.066zm0.1109 10.2754l0 0c0,0 -1.6537,0.4628 -2.9987,-0.0222 -1.345,-0.4849 -1.3891,-1.7638 -1.3891,-1.7638l0 -17.2202c0,0 0.5071,-1.2788 5.5342,-1.6317 5.0271,-0.3527 9.0399,0.882 9.7455,6.1296 0.5872,4.3671 -2.4215,7.6287 -6.7693,7.6287l-4.2111 0 0.0885 6.8796z"/>
  <path class="fil3" d="M216.505 102.141c0,0 0.9039,-1.356 1.4882,-1.6427 0.5844,-0.2867 1.2678,-0.3638 1.9073,0.1654 0.2477,0.205 2.0073,2.3389 4.0704,4.8763 2.3813,-2.7662 4.4504,-5.1634 4.4504,-5.1634 0,0 1.2567,-0.0441 2.0946,0.6835 0.8379,0.7276 0.5513,1.7639 0.2426,2.1828 -0.1696,0.2302 -2.3227,2.6767 -4.4771,5.1492 2.5875,3.2035 4.974,6.1842 4.974,6.1842 0,0 -0.1102,0.8598 -0.7056,1.4111 -0.5952,0.5513 -1.6094,0.838 -2.4033,0.4631 -0.3151,-0.1489 -2.2158,-2.4361 -4.3926,-5.1394 -0.741,0.8644 -1.347,1.5835 -1.6828,2.0081 -1.4993,1.8962 -2.5155,3.3254 -2.5155,3.3254l0.1019 -0.0069c0,0 -1.2678,0.1433 -2.26,-0.6836 -0.9922,-0.8267 -0.8048,-1.6978 -0.452,-2.1938 0.1482,-0.2083 2.1965,-2.6029 4.5223,-5.3101 -2.6005,-3.2748 -4.9628,-6.3092 -4.9628,-6.3092z"/>
 </g>
</svg>
